<svg width="30" height="21" viewBox="0 0 30 21" fill="none" xmlns="http://www.w3.org/2000/svg">
<path d="M10.8597 16.0351H4.34389L6.51584 14.1346C6.78733 13.8971 6.78733 13.5407 6.51584 13.3032C6.24434 13.0656 5.8371 13.0656 5.56561 13.3032L2.17195 16.2726C2.17195 16.2726 2.0362 16.3914 2.0362 16.5102V16.9853C2.0362 17.1041 2.17195 17.1041 2.17195 17.2229L5.56561 20.1923C5.70136 20.0735 5.97285 20.1923 6.1086 20.1923C6.24434 20.1923 6.51584 20.0735 6.65158 20.0735C6.92308 19.836 6.92308 19.4796 6.65158 19.2421L4.47964 17.3416H10.8597C11.267 17.3416 11.5385 17.1041 11.5385 16.7477C11.5385 16.3914 11.267 16.0351 10.8597 16.0351ZM27.6923 16.1538L24.2986 13.1844C24.0271 12.9468 23.6199 12.9468 23.3484 13.1844C23.0769 13.4219 23.0769 13.7783 23.3484 14.0158L25.5204 15.9163H19.0045C18.5973 15.9163 18.3258 16.1538 18.3258 16.5102C18.3258 16.8665 18.5973 17.1041 19.0045 17.1041H25.5204L23.3484 19.0045C23.2127 19.1233 23.2127 19.2421 23.2127 19.4796C23.2127 19.836 23.4842 20.0735 23.8914 20.0735C24.0271 20.0735 24.2986 19.9548 24.4344 19.9548L27.8281 16.9853C27.8281 16.9853 27.9638 16.8665 27.9638 16.7477V16.2726C27.6923 16.2726 27.6923 16.2726 27.6923 16.1538ZM9.36652 7.00792C10.4525 6.29525 11.267 5.22625 11.267 3.91968C11.1312 1.78167 9.23077 0 6.78733 0C4.34389 0 2.44344 1.78167 2.44344 3.80091C2.44344 5.10747 3.12217 6.17647 4.34389 6.88914C1.76471 7.83937 0 9.97738 0 12.4717C0 12.8281 0.271493 13.0656 0.678733 13.0656C1.08597 13.0656 1.35747 12.8281 1.35747 12.4717C1.35747 9.8586 3.8009 7.72059 6.78733 7.72059C9.77376 7.72059 12.2172 9.8586 12.2172 12.4717C12.2172 12.8281 12.4887 13.0656 12.8959 13.0656C13.3032 13.0656 13.5747 12.8281 13.5747 12.4717C13.5747 9.97738 11.81 7.83937 9.36652 7.00792ZM6.78733 6.53281C5.15837 6.53281 3.8009 5.34502 3.8009 3.91968C3.8009 2.49434 5.15837 1.18778 6.78733 1.18778C8.41629 1.18778 9.77375 2.37557 9.77375 3.80091C9.77375 5.34502 8.41629 6.53281 6.78733 6.53281ZM25.6561 7.00792C26.7421 6.29525 27.5566 5.22625 27.5566 3.91968C27.4208 1.78167 25.5204 0 23.0769 0C20.6335 0 18.733 1.78167 18.733 3.80091C18.733 5.10747 19.4118 6.17647 20.6335 6.88914C18.19 7.72059 16.4253 9.8586 16.4253 12.3529C16.4253 12.7093 16.6968 12.9468 17.1041 12.9468C17.5113 12.9468 17.7828 12.7093 17.7828 12.3529C17.7828 9.73982 20.2262 7.60181 23.2127 7.60181C26.1991 7.60181 28.6425 9.73982 28.6425 12.3529C28.6425 12.7093 28.914 12.9468 29.3213 12.9468C29.7285 12.9468 30 12.7093 30 12.3529C29.8643 9.97738 28.0995 7.83937 25.6561 7.00792ZM23.0769 6.53281C21.448 6.53281 20.0905 5.34502 20.0905 3.91968C20.0905 2.49434 21.448 1.18778 23.0769 1.18778C24.7059 1.18778 26.0633 2.37557 26.0633 3.80091C26.0633 5.34502 24.7059 6.53281 23.0769 6.53281Z" fill="black"/>
</svg>
